<?xml version="1.0" encoding="UTF-8" standalone="no"?>
<svg width="325px" height="184px" viewBox="0 0 325 184" version="1.1" xmlns="http://www.w3.org/2000/svg" xmlns:xlink="http://www.w3.org/1999/xlink">
    <!-- Generator: Sketch 3.7.2 (28276) - http://www.bohemiancoding.com/sketch -->
    <title>Group</title>
    <desc>Created with Sketch.</desc>
    <defs></defs>
    <g id="Page-1" stroke="none" stroke-width="1" fill="none" fill-rule="evenodd">
        <g id="Artboard-1" transform="translate(-342.000000, -170.000000)" fill="#34323E">
            <g id="Group" transform="translate(342.000000, 170.000000)">
                <path d="M248.325,62.45 C246.924993,60.649991 245.025012,59.2000055 242.625,58.1 C240.224988,56.9999945 237.775013,56.45 235.275,56.45 C232.674987,56.45 230.32501,56.9749948 228.225,58.025 C226.124989,59.0750053 224.325007,60.4749913 222.825,62.225 C221.324993,63.9750088 220.150004,65.9999885 219.3,68.3 C218.449996,70.6000115 218.025,73.049987 218.025,75.65 C218.025,78.250013 218.424996,80.6999885 219.225,83 C220.025004,85.3000115 221.199992,87.3249913 222.75,89.075 C224.300008,90.8250087 226.149989,92.199995 228.3,93.2 C230.450011,94.200005 232.874987,94.7 235.575,94.7 C238.075013,94.7 240.549988,94.2250048 243,93.275 C245.450012,92.3249953 247.424993,90.950009 248.925,89.15 L262.575,105.8 C259.474985,108.800015 255.475024,111.149991 250.575,112.85 C245.674975,114.550008 240.475028,115.4 234.975,115.4 C229.074971,115.4 223.575025,114.500009 218.475,112.7 C213.374975,110.899991 208.950019,108.275017 205.2,104.825 C201.449981,101.374983 198.500011,97.2000245 196.35,92.3 C194.199989,87.3999755 193.125,81.850031 193.125,75.65 C193.125,69.5499695 194.199989,64.0500245 196.35,59.15 C198.500011,54.2499755 201.449981,50.0750173 205.2,46.625 C208.950019,43.1749827 213.374975,40.5250093 218.475,38.675 C223.575025,36.8249908 229.024971,35.9 234.825,35.9 C237.525014,35.9 240.199987,36.1499975 242.85,36.65 C245.500013,37.1500025 248.049988,37.8249958 250.5,38.675 C252.950012,39.5250042 255.19999,40.5749937 257.25,41.825 C259.30001,43.0750063 261.074993,44.4499925 262.575,45.95 L248.325,62.45 Z" id="c"></path>
                <path d="M83.9,75.35 C83.9,80.550026 83.100008,85.549976 81.5,90.35 C79.899992,95.150024 77.5750153,99.3749818 74.525,103.025 C71.4749848,106.675018 67.750022,109.599989 63.35,111.8 C58.949978,114.000011 53.950028,115.1 48.35,115.1 C43.749977,115.1 39.4000205,114.175009 35.3,112.325 C31.1999795,110.474991 28.0000115,107.950016 25.7,104.75 L25.4,104.75 L25.4,149 L0.8,149 L0.8,38.3 L24.2,38.3 L24.2,47.45 L24.65,47.45 C26.9500115,44.449985 30.1249798,41.8250112 34.175,39.575 C38.2250203,37.3249887 42.9999725,36.2 48.5,36.2 C53.900027,36.2 58.799978,37.2499895 63.2,39.35 C67.600022,41.4500105 71.3249848,44.299982 74.375,47.9 C77.4250153,51.500018 79.7749918,55.6749763 81.425,60.425 C83.0750083,65.1750238 83.9,70.149974 83.9,75.35 L83.9,75.35 Z M60.05,75.35 C60.05,72.949988 59.6750038,70.6000115 58.925,68.3 C58.1749962,65.9999885 57.0750073,63.9750088 55.625,62.225 C54.1749928,60.4749913 52.350011,59.0500055 50.15,57.95 C47.949989,56.8499945 45.4000145,56.3 42.5,56.3 C39.699986,56.3 37.200011,56.8499945 35,57.95 C32.799989,59.0500055 30.9250078,60.499991 29.375,62.3 C27.8249923,64.100009 26.6250043,66.1499885 25.775,68.45 C24.9249958,70.7500115 24.5,73.099988 24.5,75.5 C24.5,77.900012 24.9249958,80.2499885 25.775,82.55 C26.6250043,84.8500115 27.8249923,86.899991 29.375,88.7 C30.9250078,90.500009 32.799989,91.9499945 35,93.05 C37.200011,94.1500055 39.699986,94.7 42.5,94.7 C45.4000145,94.7 47.949989,94.1500055 50.15,93.05 C52.350011,91.9499945 54.1749928,90.500009 55.625,88.7 C57.0750073,86.899991 58.1749962,84.8250118 58.925,82.475 C59.6750038,80.1249883 60.05,77.750012 60.05,75.35 L60.05,75.35 Z M147.8,58.4 C146.699995,58.0999985 145.625005,57.9000005 144.575,57.8 C143.524995,57.6999995 142.500005,57.65 141.5,57.65 C138.199984,57.65 135.425011,58.249994 133.175,59.45 C130.924989,60.650006 129.125007,62.0999915 127.775,63.8 C126.424993,65.5000085 125.450003,67.34999 124.85,69.35 C124.249997,71.35001 123.95,73.0999925 123.95,74.6 L123.95,113 L99.35,113 L99.35,38.3 L123.05,38.3 L123.05,49.1 L123.35,49.1 C125.25001,45.299981 127.949983,42.200012 131.45,39.8 C134.950018,37.399988 138.999977,36.2 143.6,36.2 C144.600005,36.2 145.574995,36.2499995 146.525,36.35 C147.475005,36.4500005 148.249997,36.599999 148.85,36.8 L147.8,58.4 Z M185.9,14.45 C185.9,16.3500095 185.525004,18.1249918 184.775,19.775 C184.024996,21.4250082 183.025006,22.849994 181.775,24.05 C180.524994,25.250006 179.025009,26.1999965 177.275,26.9 C175.524991,27.6000035 173.70001,27.95 171.8,27.95 C167.79998,27.95 164.450014,26.6250132 161.75,23.975 C159.049987,21.3249867 157.7,18.1500185 157.7,14.45 C157.7,12.649991 158.049997,10.9250083 158.75,9.275 C159.450004,7.62499175 160.449994,6.200006 161.75,5 C163.050006,3.799994 164.549992,2.82500375 166.25,2.075 C167.950009,1.32499625 169.79999,0.95 171.8,0.95 C173.70001,0.95 175.524991,1.2999965 177.275,2 C179.025009,2.7000035 180.524994,3.649994 181.775,4.85 C183.025006,6.050006 184.024996,7.47499175 184.775,9.125 C185.525004,10.7750083 185.9,12.5499905 185.9,14.45 L185.9,14.45 Z M184.1,114.95 C184.1,119.550023 183.675004,123.924979 182.825,128.075 C181.974996,132.225021 180.450011,135.849985 178.25,138.95 C176.049989,142.050016 173.00002,144.499991 169.1,146.3 C165.19998,148.100009 160.25003,149 154.25,149 C152.549992,149 150.70001,148.900001 148.7,148.7 C146.69999,148.499999 145.000007,148.200002 143.6,147.8 L145.25,127.25 C146.150004,127.550002 147.074995,127.75 148.025,127.85 C148.975005,127.95 149.799997,128 150.5,128 C154.100018,128 156.499994,126.775012 157.7,124.325 C158.900006,121.874988 159.5,118.750019 159.5,114.95 L159.5,38.3 L184.1,38.3 L184.1,114.95 Z" id="prj"></path>
                <path d="M304.4,56.75 L304.4,85.25 C304.4,88.7500175 305.074993,91.3749912 306.425,93.125 C307.775007,94.8750088 310.199983,95.75 313.7,95.75 C314.900006,95.75 316.174993,95.650001 317.525,95.45 C318.875007,95.249999 319.999996,94.950002 320.9,94.55 L321.2,112.55 C319.499992,113.150003 317.350013,113.674998 314.75,114.125 C312.149987,114.575002 309.550013,114.8 306.95,114.8 C301.949975,114.8 297.750017,114.175006 294.35,112.925 C290.949983,111.674994 288.22501,109.875012 286.175,107.525 C284.12499,105.174988 282.650005,102.375016 281.75,99.125 C280.849995,95.8749838 280.4,92.25002 280.4,88.25 L280.4,56.75 L268.4,56.75 L268.4,38.3 L280.25,38.3 L280.25,18.65 L304.4,18.65 L304.4,38.3 L321.95,38.3 L321.95,56.75 L304.4,56.75 Z" id="t"></path>
                <path d="M252.16,182 L245.56,182 L241.64,169.6 L241.56,169.6 L237.72,182 L231.12,182 L224.24,162.08 L231.32,162.08 L234.76,174.68 L234.88,174.68 L238.44,162.08 L245.04,162.08 L248.72,174.68 L248.8,174.68 L252.28,162.08 L259.08,162.08 L252.16,182 Z M282.76,171.96 C282.76,173.586675 282.46667,175.059993 281.88,176.38 C281.29333,177.700007 280.493338,178.819995 279.48,179.74 C278.466662,180.660005 277.29334,181.373331 275.96,181.88 C274.62666,182.386669 273.200008,182.64 271.68,182.64 C270.186659,182.64 268.766673,182.386669 267.42,181.88 C266.073327,181.373331 264.900005,180.660005 263.9,179.74 C262.899995,178.819995 262.10667,177.700007 261.52,176.38 C260.93333,175.059993 260.64,173.586675 260.64,171.96 C260.64,170.333325 260.93333,168.866673 261.52,167.56 C262.10667,166.253327 262.899995,165.146671 263.9,164.24 C264.900005,163.333329 266.073327,162.640002 267.42,162.16 C268.766673,161.679998 270.186659,161.44 271.68,161.44 C273.200008,161.44 274.62666,161.679998 275.96,162.16 C277.29334,162.640002 278.466662,163.333329 279.48,164.24 C280.493338,165.146671 281.29333,166.253327 281.88,167.56 C282.46667,168.866673 282.76,170.333325 282.76,171.96 L282.76,171.96 Z M276.44,171.96 C276.44,171.319997 276.333334,170.693336 276.12,170.08 C275.906666,169.466664 275.600002,168.926669 275.2,168.46 C274.799998,167.993331 274.30667,167.613335 273.72,167.32 C273.13333,167.026665 272.453337,166.88 271.68,166.88 C270.906663,166.88 270.22667,167.026665 269.64,167.32 C269.05333,167.613335 268.566669,167.993331 268.18,168.46 C267.793331,168.926669 267.500001,169.466664 267.3,170.08 C267.099999,170.693336 267,171.319997 267,171.96 C267,172.600003 267.099999,173.226664 267.3,173.84 C267.500001,174.453336 267.799998,175.006664 268.2,175.5 C268.600002,175.993336 269.09333,176.386665 269.68,176.68 C270.26667,176.973335 270.946663,177.12 271.72,177.12 C272.493337,177.12 273.17333,176.973335 273.76,176.68 C274.34667,176.386665 274.839998,175.993336 275.24,175.5 C275.640002,175.006664 275.939999,174.453336 276.14,173.84 C276.340001,173.226664 276.44,172.600003 276.44,171.96 L276.44,171.96 Z M299.84,167.44 C299.546665,167.36 299.260001,167.306667 298.98,167.28 C298.699999,167.253333 298.426668,167.24 298.16,167.24 C297.279996,167.24 296.540003,167.399998 295.94,167.72 C295.339997,168.040002 294.860002,168.426664 294.5,168.88 C294.139998,169.333336 293.880001,169.826664 293.72,170.36 C293.559999,170.893336 293.48,171.359998 293.48,171.76 L293.48,182 L286.92,182 L286.92,162.08 L293.24,162.08 L293.24,164.96 L293.32,164.96 C293.826669,163.946662 294.546662,163.120003 295.48,162.48 C296.413338,161.839997 297.493327,161.52 298.72,161.52 C298.986668,161.52 299.246665,161.533333 299.5,161.56 C299.753335,161.586667 299.959999,161.626666 300.12,161.68 L299.84,167.44 Z M324.16,182 L316.04,182 L309.52,172.44 L309.4,172.44 L309.4,182 L302.8,182 L302.8,151.76 L309.4,151.76 L309.4,170.16 L309.52,170.16 L315.88,162.08 L323.84,162.08 L316.16,171.08 L324.16,182 Z" id="work"></path>
                <path d="M0,160 L211,160 L219,184 L0,184 L0,160 Z M211.18,178.6 C211.18,179.293337 210.926669,179.906664 210.42,180.44 C209.913331,180.973336 209.273337,181.24 208.5,181.24 C207.75333,181.24 207.120003,180.980003 206.6,180.46 C206.079997,179.939997 205.82,179.333337 205.82,178.64 C205.82,177.919996 206.073331,177.300003 206.58,176.78 C207.086669,176.259997 207.726663,176 208.5,176 C209.273337,176 209.913331,176.253331 210.42,176.76 C210.926669,177.266669 211.18,177.879996 211.18,178.6 Z" id="Rectangle-2"></path>
            </g>
        </g>
    </g>
</svg>