<?xml version="1.0" encoding="UTF-8" standalone="no"?>
<svg width="325px" height="184px" viewBox="0 0 325 184" version="1.1" xmlns="http://www.w3.org/2000/svg" xmlns:xlink="http://www.w3.org/1999/xlink" xmlns:sketch="http://www.bohemiancoding.com/sketch/ns">
    <!-- Generator: Sketch 3.4.4 (17249) - http://www.bohemiancoding.com/sketch -->
    <title>Group</title>
    <desc>Created with Sketch.</desc>
    <defs></defs>
    <g id="Page-1" stroke="none" stroke-width="1" fill="none" fill-rule="evenodd" sketch:type="MSPage">
        <g id="Artboard-1" sketch:type="MSArtboardGroup" transform="translate(-342.000000, -171.000000)" fill="#34323E">
            <g id="Group" sketch:type="MSLayerGroup" transform="translate(333.000000, 134.000000)">
                <text id="c" sketch:type="MSTextLayer" font-family="Avenir Next" font-size="150" font-weight="bold" sketch:alignment="middle">
                    <tspan x="196.275" y="150">c</tspan>
                </text>
                <text id="prj" sketch:type="MSTextLayer" font-family="Avenir Next" font-size="150" font-weight="bold" sketch:alignment="right">
                    <tspan x="0.2" y="150">prj</tspan>
                </text>
                <text id="t" sketch:type="MSTextLayer" font-family="Avenir Next" font-size="150" font-weight="bold" sketch:alignment="middle">
                    <tspan x="277.1" y="150">t</tspan>
                </text>
                <text id="work" sketch:type="MSTextLayer" font-family="Avenir Next" font-size="40" font-weight="bold" sketch:alignment="right">
                    <tspan x="233.24" y="219">work</tspan>
                </text>
                <path d="M9,197 L220,197 L228,221 L9,221 L9,197 Z M220.18,215.6 C220.18,216.293337 219.926669,216.906664 219.42,217.44 C218.913331,217.973336 218.273337,218.24 217.5,218.24 C216.75333,218.24 216.120003,217.980003 215.6,217.46 C215.079997,216.939997 214.82,216.333337 214.82,215.64 C214.82,214.919996 215.073331,214.300003 215.58,213.78 C216.086669,213.259997 216.726663,213 217.5,213 C218.273337,213 218.913331,213.253331 219.42,213.76 C219.926669,214.266669 220.18,214.879996 220.18,215.6 Z" id="Rectangle-2" sketch:type="MSShapeGroup"></path>
            </g>
        </g>
    </g>
</svg>